<?xml version="1.0" encoding="UTF-8" standalone="no"?>
<svg version="1.1" xmlns="http://www.w3.org/2000/svg" xmlns:svg="http://www.w3.org/2000/svg" width="1024" height="1024" viewBox="0 0 1024 1024">
  <g id="converted_paths">
    <path d="m283.8,922.1c-13.5,-5.9 -20.2,-20.4 -17.8,-38.4 1.9,-14.3 7.7,-23.9 25.2,-42 9,-9.3 19,-20.8 22.3,-25.7 7.4,-10.9 40.9,-74.8 53.7,-102.4 5.2,-11.1 17.4,-36.5 27.3,-56.4 25.7,-51.9 26.6,-60.7 9.8,-95.9 -8.7,-18.2 -14.2,-23.7 -49.9,-49.2 -11.9,-8.5 -35.2,-26.3 -51.9,-39.6 -43.8,-34.9 -51.4,-38.3 -70.6,-31.4 -22.7,8.1 -54.6,-6.4 -66.7,-30.2 -6.5,-12.9 -7.1,-40.9 -1,-53.2 5.8,-11.9 19.1,-23.9 32,-28.8 22.1,-8.4 52.6,-1.4 67.2,15.4 8.5,9.8 15.5,25.6 15.5,35 0,15.8 10.9,27.6 51,55.6 9.2,6.4 25.4,18.8 36.1,27.5 27.3,22.3 50.9,38.2 62.5,42 18,6 49.6,0.7 71.2,-12.1 5.4,-3.2 10.9,-9 15.4,-16.3 15.2,-24.5 42.7,-75 66.1,-121.3 13.5,-26.7 32.3,-62.8 41.7,-80.2 25.4,-46.8 29,-56 28,-73.1 -0.6,-11.3 -2.3,-17 -8.3,-29.4 -7.5,-15.3 -7.5,-15.5 -6.6,-34.7 1.2,-25.8 7,-39.2 24.2,-55.9 27,-26.2 61.4,-32.3 94.1,-16.7 29.4,14.1 47.9,46.2 45.4,79.2 -1.3,16.7 -5.7,28.1 -18,45.4 -12.2,17.3 -22.7,23.6 -56,33.7 -14.6,4.4 -24,11 -31.4,21.8 -3.4,5 -23.7,43.6 -45.1,85.7 -21.4,42.1 -45.6,89.1 -53.8,104.3 -25.8,47.8 -27.5,52 -27.5,65.7 0,10.6 0.8,13.2 6,19.8 3.3,4.2 9.5,9.4 13.7,11.6 11.2,5.8 39.2,4.9 91,-2.9 23.2,-3.5 54.6,-7 69.8,-7.8 31.8,-1.7 38.4,-4.3 50.1,-20 4.3,-5.7 10.8,-11 18.2,-14.9 10,-5.2 13.6,-6 27.4,-5.9 16.8,0 25.4,3.1 37.7,13.6 9.2,7.8 16.7,23.7 17.8,37.8 1.5,18.8 -3.2,32.4 -15.3,44.6 -11.7,11.9 -16.8,14.7 -31.8,17.8 -19.9,4.1 -36.3,-1.2 -51.2,-16.7 -12.6,-13 -19.3,-14.4 -51.8,-10.3 -14.7,1.9 -31.1,3.4 -36.5,3.4 -5.4,-0 -15.1,0.8 -21.6,1.9 -6.5,1.1 -28.3,3.2 -48.5,4.8 -34.1,2.7 -37.6,3.3 -49.7,9.1 -11.6,5.6 -13.4,7.3 -17.7,16.5 -5.3,11.6 -5.5,13.2 -2.6,23.7 2.6,9.4 19.9,28.1 58.6,63.5 15.6,14.3 37.5,35.1 48.7,46.2 28,28.1 33.6,31.1 57.4,31.4 16,0.2 20.6,1.1 30.9,5.7 13.8,6.3 26,18.4 32.3,32.3 6.4,14 5.8,37.4 -1.2,51.1 -22.6,44.1 -87.6,42.4 -109.5,-2.9 -3.6,-7.4 -4.5,-13 -4.8,-28.2 -0.4,-22.4 -2.7,-28 -15.8,-38.9 -21.6,-17.9 -63.4,-56.5 -70.7,-65.3 -10.1,-12.1 -55.3,-53.6 -64.8,-59.5 -9.7,-5.9 -30.4,-10.5 -47.9,-10.5 -12.3,0 -16.4,1 -28.1,6.7 -7.6,3.7 -16,9.3 -18.7,12.6 -2.7,3.3 -11.9,21.4 -20.4,40.4 -8.5,18.9 -17.7,38.4 -20.6,43.3 -10,17.3 -39,74.4 -43,84.8 -2.2,5.8 -5.4,19.4 -7,30.3 -3.1,20.7 -8.8,35 -16.9,42.7 -11.8,11.1 -34.3,15.7 -47.8,9.7z" style="fill:#000000" id="path_0" />
  </g>
</svg>