<?xml version="1.0" encoding="UTF-8" standalone="no"?>
<!-- Created with Inkscape (http://www.inkscape.org/) -->

<svg
   version="1.1"
   id="svg1"
   width="1024"
   height="1024"
   viewBox="0 0 1024 1024"
   xmlns="http://www.w3.org/2000/svg"
   xmlns:svg="http://www.w3.org/2000/svg">
  <defs
     id="defs1" />
  <g
     id="g1">
    <path
       style="fill:#000000"
       d="m 283.77481,922.13624 c -13.49055,-5.93546 -20.20651,-20.42808 -17.77392,-38.35499 1.94721,-14.34995 7.66763,-23.87642 25.23198,-42.01995 8.96101,-9.2565 19.01523,-20.8395 22.3427,-25.74 7.40837,-10.9106 40.91011,-74.77677 53.70065,-102.37246 5.15009,-11.11135 17.42177,-36.50485 27.2704,-56.43001 25.66978,-51.93355 26.56835,-60.73642 9.79372,-95.94393 -8.6935,-18.24641 -14.23074,-23.70597 -49.90115,-49.20108 -11.85921,-8.47627 -35.2346,-26.29809 -51.9453,-39.60406 -43.82263,-34.89393 -51.35423,-38.25033 -70.56721,-31.44769 -22.74043,8.05159 -54.64479,-6.37976 -66.66529,-30.1548 -6.52479,-12.90522 -7.05314,-40.85986 -1.0058,-53.21601 5.82285,-11.89747 19.14921,-23.90188 31.95433,-28.78451 22.0851,-8.42111 52.58823,-1.44487 67.20425,15.37001 8.4875,9.76437 15.51489,25.60325 15.53817,35.02116 0.039,15.76284 10.86215,27.55963 50.98435,55.57067 9.16393,6.39774 25.41924,18.7752 36.1229,27.50546 27.29547,22.26311 50.91996,38.15773 62.47829,42.03557 18.01132,6.04283 49.59495,0.67126 71.17928,-12.10577 5.3665,-3.17675 10.91446,-9.04414 15.43698,-16.32578 15.1873,-24.45285 42.73049,-74.96496 66.12267,-121.26397 13.47811,-26.67656 32.25775,-62.75884 41.73255,-80.18284 25.44679,-46.79624 28.96772,-55.98691 28.0131,-73.12261 -0.6272,-11.2586 -2.25085,-17.00465 -8.29808,-29.36682 -7.47424,-15.27935 -7.51291,-15.48253 -6.5982,-34.67011 1.23054,-25.81271 7.02526,-39.175475 24.22118,-55.854639 27.02217,-26.21012 61.43835,-32.326705 94.09291,-16.72258 29.416,14.05656 47.85663,46.225289 45.38926,79.179199 -1.25253,16.72866 -5.74939,28.08536 -17.97107,45.38551 -12.19467,17.26192 -22.69822,23.58253 -55.96136,33.67531 -14.56968,4.42077 -23.99297,10.97628 -31.39135,21.83806 -3.40134,4.99362 -23.68305,43.55817 -45.07047,85.699 -21.38742,42.14083 -45.60727,89.09369 -53.82188,104.33969 -25.78031,47.84723 -27.5124,51.98042 -27.5124,65.65122 0,10.62719 0.77058,13.16735 6.00652,19.8 3.30358,4.18483 9.47821,9.39079 13.7214,11.56879 11.24027,5.76956 39.21046,4.88021 91.02338,-2.89421 23.17937,-3.47801 54.60568,-6.99025 69.83625,-7.80497 31.84974,-1.70372 38.41205,-4.31862 50.1171,-19.97026 4.27893,-5.72165 10.75972,-11.01351 18.18636,-14.85 10.04042,-5.18673 13.59228,-5.95612 27.3586,-5.9263 16.8239,0.0365 25.42147,3.13043 37.70097,13.56731 9.19397,7.81436 16.69129,23.70874 17.80723,37.75148 1.49148,18.76829 -3.17077,32.35229 -15.3135,44.61767 -11.7417,11.8603 -16.78349,14.68315 -31.81375,17.81224 -19.90167,4.14324 -36.30306,-1.21272 -51.23403,-16.73073 -12.55618,-13.04986 -19.32395,-14.39261 -51.81056,-10.27941 -14.70159,1.86141 -31.14062,3.37598 -36.53117,3.36573 -5.39055,-0.0103 -15.09354,0.84659 -21.5622,1.90409 -6.46866,1.05751 -28.2785,3.22221 -48.46632,4.81046 -34.12123,2.68445 -37.61783,3.32772 -49.6704,9.13799 -11.64071,5.61172 -13.44604,7.29325 -17.67127,16.45958 -5.33953,11.58368 -5.52377,13.23448 -2.64559,23.70405 2.57114,9.35266 19.85797,28.0835 58.62476,63.52181 15.60909,14.26891 37.50727,35.07801 48.66262,46.24243 28.04699,28.06982 33.5946,31.10589 57.42023,31.42467 15.99123,0.21396 20.61871,1.07102 30.86821,5.71719 13.83898,6.2733 25.98966,18.41802 32.31721,32.30137 6.37186,13.98057 5.84348,37.41328 -1.15184,51.08206 -22.56692,44.09557 -87.64416,42.38877 -109.53242,-2.87275 -3.59597,-7.43591 -4.54198,-12.97329 -4.82052,-28.21647 -0.40891,-22.37731 -2.71177,-28.04954 -15.77323,-38.8513 -21.63162,-17.88925 -63.41161,-56.45179 -70.73718,-65.28977 -10.06706,-12.14544 -55.27392,-53.64939 -64.79701,-59.48945 -9.66252,-5.92556 -30.41755,-10.4545 -47.91041,-10.4545 -12.27769,0 -16.37266,0.96951 -28.12606,6.65908 -7.56592,3.66249 -15.98461,9.33412 -18.7082,12.60361 -2.72358,3.26949 -11.89025,21.43416 -20.37037,40.36592 -8.48013,18.93177 -17.73921,38.43089 -20.57574,43.33139 -9.99322,17.26467 -38.95824,74.3768 -42.98459,84.75541 -2.24155,5.77797 -5.39967,19.41029 -7.01804,30.29405 -3.0793,20.70877 -8.75935,35.04856 -16.92657,42.73266 -11.7679,11.07178 -34.32517,15.65286 -47.82606,9.71283 z"
       id="path1" />
  </g>
</svg>
